# xmcd
#
# Track frame offsets:
#	150
#	10585
#	22022
#	32198
#	44267
#	57542
#	71034
#	82140
#	93690
#	107292
#	120830
#	131953
#	144202
#	157269
#	169672
#	182290
#	194457
#	206130
#	218197
#	231249
#	243925
#
# Disc length: 3411 seconds
#
# Revision: 1
# Processed by: cddbd v1.5.2PL0 Copyright (c) Steve Scherf et al.
# Submitted via: audiograbber 1.83.01
#
DISCID=2b0d5115
DTITLE=James,Elmore - Dust my broom 1951-1961 [CD 3)
DYEAR=2017
DGENRE=Blues
TTITLE0=Done somebody wrong
TTITLE1=Fine little Mama
TTITLE2=I can't hold out
TTITLE3=The sun is shining
TTITLE4=Stranger blues
TTITLE5=Anna Lee
TTITLE6=Look on yonder wall
TTITLE7=Shake your moneymaker
TTITLE8=Eyesight to the blind - Williamson, Sonny Boy II
TTITLE9=Crazy about you baby - Williamson, Sonny Boy II
TTITLE10=Do it if you wanta - Williamson, Sonny Boy II
TTITLE11=Cool cool blues - Williamson, Sonny Boy II
TTITLE12=Stop crying - Williamson, Sonny Boy II
TTITLE13=Come on back home - Williamson, Sonny Boy II
TTITLE14=West Memphis Blues - Williamson, Sonny Boy II
TTITLE15=I cross my heart - Williamson, Sonny Boy II
TTITLE16=Sonny Boy's Christmas - Williamson, Sonny Boy II
TTITLE17=Pontiac blues - Williamson, Sonny Boy II
TTITLE18=Mighty long time - Williamson, Sonny Boy II
TTITLE19=Nine below zero - Williamson, Sonny Boy II
TTITLE20=Stop now baby - Williamson, Sonny Boy II
EXTD=
EXTT0=
EXTT1=
EXTT2=
EXTT3=
EXTT4=
EXTT5=
EXTT6=
EXTT7=
EXTT8=
EXTT9=
EXTT10=
EXTT11=
EXTT12=
EXTT13=
EXTT14=
EXTT15=
EXTT16=
EXTT17=
EXTT18=
EXTT19=
EXTT20=
PLAYORDER=
